# xmcd
#
# Track frame offsets:
#	150
#	11389
#	24339
#	37485
#	65334
#	79563
#	98089
#	114510
#	128685
#	142577
#	161594
#	174958
#
# Disc length: 2548 seconds
#
# Revision: 0
# Processed by: cddbd v1.4PL0 Copyright (c) Steve Scherf et al.
# Submitted via: dBpowerAMP V4.0
#
DISCID=8709f20c
DTITLE=David Basse - Strike When Your Iron is Hot
DYEAR=1900
DGENRE=Blues
TTITLE0=Strike When Your Iron Is Hot
TTITLE1=The Best Thing
TTITLE2=I'm Just a Lucky So and So
TTITLE3=Invitation to the Blues
TTITLE4=The Eagle Flies on Friday
TTITLE5=House of Should'a, Could'a, Would'a Been
TTITLE6=New York State of Mind
TTITLE7=Sugar
TTITLE8=The Light of Our Love
TTITLE9=Gauloise Blue (Smokin' the Night Away)
TTITLE10=Soft and Furry
TTITLE11=The Big Comeback
EXTD=
EXTT0=
EXTT1=
EXTT2=
EXTT3=
EXTT4=
EXTT5=
EXTT6=
EXTT7=
EXTT8=
EXTT9=
EXTT10=
EXTT11=
PLAYORDER=
